<svg width="30" height="33" viewBox="0 0 30 33" fill="currentColor" xmlns="http://www.w3.org/2000/svg">
<path fill-rule="evenodd" clip-rule="evenodd" d="M19.097 8.26891C19.097 10.6266 17.1858 12.5378 14.8281 12.5378C12.4705 12.5378 10.5592 10.6266 10.5592 8.26891C10.5592 5.91126 12.4705 4 14.8281 4C17.1858 4 19.097 5.91126 19.097 8.26891ZM23.097 8.26891C23.097 12.8357 19.3949 16.5378 14.8281 16.5378C10.2613 16.5378 6.5592 12.8357 6.5592 8.26891C6.5592 3.70212 10.2613 0 14.8281 0C19.3949 0 23.097 3.70212 23.097 8.26891ZM30 32.25H26C26 26.1749 21.0751 21.25 15 21.25C8.92487 21.25 4 26.1749 4 32.25H0C0 23.9657 6.71573 17.25 15 17.25C23.2843 17.25 30 23.9657 30 32.25Z" />
</svg>
