<svg viewBox="0 0 30 33" fill="currentColor" xmlns="http://www.w3.org/2000/svg">
<path d="M15 17.25C23.2843 17.25 30 23.9657 30 32.25H27C27 25.6226 21.6274 20.25 15 20.25C8.37258 20.25 3 25.6226 3 32.25H0C0 23.9657 6.71573 17.25 15 17.25ZM14.8281 0C19.3946 0.000197904 23.0975 3.70205 23.0977 8.26855L23.0869 8.69434C22.8655 13.0633 19.2521 16.5379 14.8281 16.5381L14.4033 16.5273C10.0341 16.3061 6.55957 12.6928 6.55957 8.26855C6.55976 3.70204 10.2616 0.0001943 14.8281 0ZM14.8281 3C11.9185 3.00019 9.55976 5.3589 9.55957 8.26855C9.55957 11.1784 11.9183 13.5379 14.8281 13.5381C17.7379 13.5379 20.0977 11.1784 20.0977 8.26855C20.0975 5.3589 17.7378 3.0002 14.8281 3Z"/>
</svg>
