<?xml version="1.0" encoding="UTF-8"?><svg id="Lager_1" xmlns="http://www.w3.org/2000/svg" height="60px" width="180px" viewBox="0 0 450 120"><path d="M450,129.75c-149.97,0-299.95,0-450,0V0h450v129.75ZM83.75,47.66c-12.34-9.3-32.34-10.01-46.37-2.45-19.73,10.64-21.38,33.19-3.14,45.11,12.79,8.36,26.61,8.86,40.84,4.04,1.36-.46,2.54-1.16,2.63-2.78.09-1.56-.82-2.6-2.1-3.26-1.99-1.02-4.05-1.91-6.07-2.87-2.33-1.1-3.59-2.92-2.57-5.4,1.07-2.6,3.23-3.29,5.85-2.1,2.49,1.13,4.96,2.29,7.43,3.46,6.92,3.28,13.09.55,15.03-6.86,1.79-6.86.56-13.27-3.66-19.37-3.06,3.27-6.27,6.23-8.93,9.63-6.06,7.72-13.85,7.15-19.17-2.13,7.65-3.62,14.51-8.4,20.22-15.02ZM174.18,92.14c-1.98-8.23-3.13-16.21-3.34-24.31-.13-5.05.62-9.91,3.55-14.21.66-.96,1.49-1.77,2.75-1.59,1.36.2,1.53,1.39,1.87,2.48.82,2.64.13,5.3,0,8.09,4.07.08,6.65-3.1,10.45-3.82-.11,12.53-1.11,24.85-.64,37.45,2.42-.75,4.51-1.61,6.68-2,2.72-.49,3.56-1.86,3.55-4.56,0-4.24-.26-8.55,1.01-13.42,3.15,7.3,6.63,13.66,10.42,19.97,3.91-2.77,7.54-5.34,11.36-8.05-5.28-7.17-11.07-13.7-14.93-21.82,5.96-4.71,11.46-9.82,16.56-15.55-2.86-3.27-5.52-6.31-8.36-9.57-4.02,5.76-7.78,11.27-13.19,16.5,1.43-13.18,4.42-25.19,8.88-37.59-5.56,1.91-10.31,3.66-15.13,5.15-2.28.71-3.42,1.71-3.61,4.29-.46,6.17-1.32,12.32-2.08,19-3.1-5.28-5.1-6.09-10.05-4.98-4.02.9-6.84,3.59-9.91,6.51v-7.22c-3.37.45-6.18,1.75-9.03,2.97-1.07.46-1.46,1.21-1.48,2.32-.27,15.76-.61,31.52.85,47.49,4.65-1.19,9.07-2.33,13.8-3.55ZM382,92.29c-2.1-9.26-3.53-18.31-3.22-27.55.13-3.81,1.09-7.36,3.08-10.6.71-1.16,1.61-2.44,3.23-2.06,1.62.39,1.84,1.97,1.91,3.29.14,2.57.04,5.15.04,8.08,4.92-2.14,9.27-4.91,14.53-6.41-.07,1.17-.1,1.78-.14,2.39-.64,8.92-2.33,17.76-2.26,26.73.04,5.01,1.68,9.34,6.51,11.71,4.83,2.36,9.48,1.52,13.77-1.43,5.96-4.1,8.1-10.39,9.77-17.32-3.86-.59-7.5-1.14-11.27-1.72-.79,2.72-1.41,5.23-2.27,7.66-.63,1.79-.98,4.63-3.34,4.27-2.57-.38-2.11-3.27-2.14-5.28-.12-8.38,2.03-16.49,2.99-24.74.69-5.92,3.35-8.84,9.06-9.39,3.8-.37,3.99-2.77,3.49-5.83-3.29.53-6.31,1.03-9.65,1.57.7-7.38,3.24-13.95,5.21-20.89-5.31.38-10.01,1.87-14.63,3.72-1.64.66-2.14,1.72-2.3,3.38-.47,4.94-1.26,9.86-1.67,14.81-.24,2.84-1.36,4.3-4.28,4.13-2.78-6.74-4.4-8.1-8.93-7.56-4.64.55-8.09,3.26-11.58,6.94v-7.22c-2.38.05-4.25,1.16-6.28,1.67-3.08.78-4.23,2.48-4.35,5.75-.54,14.06-.19,28.09.66,42.12.06,1.03-.2,2.27,1.1,3.16,3.98-1.49,8.23-2.42,12.99-3.4ZM346.14,96.78c5.89-.74,11.4-1.43,17.13-2.16-2.03-22.24-1.89-44.17-1.3-66.43-6.5-.35-12.75-.05-18.97,1.44-2.18.52-3.3,1.56-4.14,3.63-5.87,14.35-10.78,29.03-15.63,43.73-1.57,4.76-2.92,9.59-4.39,14.47h15.68c.84-3.31.84-7.05,2.65-9.38,1.98-2.55,5.99-1.88,9.43-2.19-.18,5.76-1.12,11.17-.45,16.89ZM152.5,46.22c-5.03,1.51-9.74,2.92-14.84,4.44.53-3.3,1.24-6.2,1.39-9.13.12-2.26,1.26-2.92,3.12-3.37,4.34-1.05,8.66-2.21,12.98-3.32.45-3.02.73-5.82.33-8.76-9.22,1.51-18.32,2.81-27.27,5.06-2.08.52-3.06,1.16-3.36,3.53-1.74,13.79-3.75,27.55-5.63,41.32q-1.46,10.66,6.26,18.31c.44.44.93.84,1.32,1.32.98,1.22,1.99,1.45,3.57.86,7.8-2.91,15.65-5.68,23.5-8.45,1.14-.4,1.99-.82,2.05-2.24.2-4.8.49-9.6.77-14.9-7.33,2.36-14.14,4.56-21.02,6.78-.65-2.52-.33-4.87-.2-7.2q.46-8.37,8.41-10.93,9.34-3.01,8.62-13.32ZM280.71,94.82c3.95-1.21,7.4-2.26,10.84-3.31,1.1-.34,1.89-.79,2.22-2.13,2.98-12.18,6.16-24.34,6.16-36.98,0-9.17-5.13-12-13.16-7.46-1.72.97-3.29,2.24-4.87,3.44-1.83,1.4-3.59,2.88-5.85,4.71.21-4.07.39-7.5.59-11.29-4.3,1.59-8.31,3.21-12.42,4.53-2.31.74-2.95,1.93-2.85,4.31.55,13.16.92,26.32,1.36,39.48.02.56-.16,1.24.8,1.7,2.2-.61,4.56-1.45,6.98-1.89,2.59-.47,3.31-1.89,3.42-4.35.3-6.45,1.15-12.88,1.22-19.33.05-4.12,2.36-6.58,4.89-9.12.88-.89,2.03-1.71,3.33-1.08,1.11.54,1.27,1.8,1.23,2.94-.14,3.84-.08,7.72-.54,11.52-.95,7.97-2.19,15.91-3.37,24.31ZM258.35,93.93c-2.52-11.14-2.83-21.84-.99-32.63.45-2.66.35-5.46.15-8.17-.37-5.02-3.02-8.54-7.67-10.55-9.61-4.16-20.45,1.54-23.37,12.41,3.52,1.05,7.04,2.1,10.57,3.15,1.21-3.22,2.37-6.1,4.54-8.41,1.01-1.07,2.15-2.53,3.75-1.78,1.55.73,1.27,2.53,1.23,4.02-.1,3.74-2.24,6.25-5.22,8.1-3.37,2.1-6.93,3.91-10.3,6.01-7.19,4.48-10.33,11.97-8.62,20.2,1.51,7.27,7.07,10.52,14.23,8.4,2.99-.89,5.43-2.78,8.09-4.44.35,2.44.66,4.63,1.02,7.15,4.26-1.16,8.29-2.26,12.61-3.45ZM86.01,58.1c7.25-7.87,13.98-15.18,20.71-22.49,1.01-1.1,2.32-2.32.71-3.76-1.6-1.43-2.69.1-3.77,1.06-1.95,1.73-3.89,3.48-5.81,5.24-5.45,5-10.89,10.01-16.17,14.87,1.52,1.78,2.8,3.27,4.35,5.08ZM66.92,63.61c5.14,5.84,9.89,5.88,13.21.44-1.67-1.6-3.34-3.21-5.17-4.97-2.46,1.39-5.15,2.9-8.04,4.53ZM81.66,62.06c1.22-.67,2.07-1.33,2.59-2.6-1.5-1.38-3.03-2.78-4.68-4.29-.61.58-1.63,1.08-2.07,2.51,1.26,1.32,2.6,2.74,4.16,4.39Z" fill="currentColor" opacity="0" stroke-width="0"/><path d="M83.75,47.66c-5.71,6.62-12.57,11.4-20.22,15.02,5.31,9.28,13.11,9.85,19.17,2.13,2.66-3.39,5.88-6.36,8.93-9.63,4.22,6.1,5.45,12.51,3.66,19.37-1.94,7.41-8.1,10.14-15.03,6.86-2.47-1.17-4.94-2.33-7.43-3.46-2.62-1.18-4.78-.49-5.85,2.1-1.03,2.48.24,4.3,2.57,5.4,2.02.96,4.08,1.84,6.07,2.87,1.27.66,2.18,1.7,2.1,3.26-.09,1.63-1.27,2.32-2.63,2.78-14.23,4.82-28.05,4.31-40.84-4.04-18.24-11.92-16.59-34.47,3.14-45.11,14.02-7.57,34.02-6.86,46.37,2.45ZM34.08,68.74c-3.4,0-6.4,3.02-6.4,6.44,0,3.64,3.02,6.51,6.74,6.41,3.25-.08,5.99-3,5.97-6.34-.03-3.48-2.96-6.51-6.31-6.52ZM45.66,58.14c.04-3.58-2.75-6.51-6.25-6.57-3.43-.06-6.48,2.94-6.48,6.37,0,3.54,2.82,6.46,6.3,6.5,3.54.05,6.4-2.75,6.43-6.31ZM62.13,50.54c-.01-3.42-3.09-6.5-6.41-6.44-3.38.07-6.41,3.23-6.3,6.57.11,3.36,3.27,6.3,6.66,6.2,3.23-.1,6.07-3.06,6.05-6.33Z" fill="currentColor" stroke-width="0"/><path d="M174.18,92.14c-4.73,1.22-9.15,2.35-13.8,3.55-1.47-15.97-1.12-31.73-.85-47.49.02-1.11.41-1.86,1.48-2.32,2.84-1.22,5.65-2.52,9.03-2.97v7.22c3.07-2.92,5.9-5.61,9.91-6.51,4.95-1.11,6.96-.3,10.05,4.98.76-6.69,1.62-12.83,2.08-19,.19-2.59,1.32-3.59,3.61-4.29,4.83-1.49,9.57-3.24,15.13-5.15-4.46,12.4-7.45,24.41-8.88,37.59,5.41-5.22,9.17-10.73,13.19-16.5,2.84,3.25,5.5,6.3,8.36,9.57-5.11,5.73-10.6,10.85-16.56,15.55,3.87,8.12,9.66,14.65,14.93,21.82-3.83,2.71-7.46,5.28-11.36,8.05-3.79-6.31-7.27-12.67-10.42-19.97-1.27,4.87-1.02,9.18-1.01,13.42,0,2.7-.83,4.07-3.55,4.56-2.17.39-4.26,1.26-6.68,2-.48-12.61.52-24.93.64-37.45-3.8.72-6.38,3.89-10.45,3.82.14-2.8.82-5.46,0-8.09-.34-1.09-.51-2.28-1.87-2.48-1.26-.19-2.1.63-2.75,1.59-2.94,4.3-3.68,9.16-3.55,14.21.21,8.1,1.35,16.08,3.34,24.31Z" fill="currentColor" stroke-width="0"/><path d="M382,92.29c-4.75.99-9,1.92-12.99,3.4-1.31-.88-1.04-2.13-1.1-3.16-.85-14.03-1.2-28.06-.66-42.12.13-3.27,1.27-4.98,4.35-5.75,2.03-.51,3.9-1.62,6.28-1.67v7.22c3.49-3.67,6.94-6.38,11.58-6.94,4.53-.54,6.15.82,8.93,7.56,2.92.17,4.05-1.29,4.28-4.13.41-4.95,1.19-9.86,1.67-14.81.16-1.66.66-2.72,2.3-3.38,4.62-1.86,9.32-3.35,14.63-3.72-1.97,6.95-4.51,13.51-5.21,20.89,3.34-.54,6.37-1.04,9.65-1.57.5,3.06.31,5.46-3.49,5.83-5.71.56-8.37,3.47-9.06,9.39-.95,8.25-3.11,16.36-2.99,24.74.03,2-.43,4.89,2.14,5.28,2.36.35,2.71-2.49,3.34-4.27.86-2.43,1.48-4.94,2.27-7.66,3.77.57,7.42,1.13,11.27,1.72-1.67,6.93-3.81,13.22-9.77,17.32-4.28,2.95-8.94,3.79-13.77,1.43-4.83-2.36-6.47-6.69-6.51-11.71-.07-8.97,1.62-17.81,2.26-26.73.04-.61.07-1.22.14-2.39-5.26,1.5-9.6,4.27-14.53,6.41,0-2.93.1-5.51-.04-8.08-.07-1.32-.29-2.91-1.91-3.29-1.62-.39-2.51.89-3.23,2.06-1.99,3.24-2.95,6.79-3.08,10.6-.31,9.24,1.11,18.28,3.22,27.55Z" fill="currentColor" stroke-width="0"/><path d="M346.14,96.78c-.67-5.72.27-11.13.45-16.89-3.43.31-7.44-.36-9.43,2.19-1.81,2.33-1.8,6.07-2.65,9.38h-15.68c1.47-4.88,2.82-9.71,4.39-14.47,4.84-14.71,9.76-29.39,15.63-43.73.84-2.06,1.96-3.1,4.14-3.63,6.22-1.49,12.46-1.79,18.97-1.44-.59,22.26-.73,44.19,1.3,66.43-5.73.72-11.23,1.41-17.13,2.16ZM339.56,72.37c2.79-.33,4.92-.59,7.03-.84.14-7.49,1.45-14.46.6-22.5-3.43,7.99-5.53,15.38-7.64,23.34Z" fill="currentColor" stroke-width="0"/><path d="M152.5,46.22q.71,10.31-8.62,13.32-7.93,2.56-8.41,10.93c-.13,2.33-.45,4.68.2,7.2,6.88-2.22,13.69-4.41,21.02-6.78-.28,5.3-.57,10.1-.77,14.9-.06,1.42-.91,1.83-2.05,2.24-7.85,2.77-15.7,5.54-23.5,8.45-1.58.59-2.58.36-3.57-.86-.39-.48-.88-.88-1.32-1.32q-7.69-7.65-6.26-18.31c1.88-13.77,3.89-27.53,5.63-41.32.3-2.37,1.29-3.01,3.36-3.53,8.94-2.25,18.05-3.55,27.27-5.06.39,2.94.12,5.74-.33,8.76-4.32,1.11-8.64,2.27-12.98,3.32-1.86.45-3,1.11-3.12,3.37-.15,2.93-.86,5.83-1.39,9.13,5.1-1.53,9.8-2.94,14.84-4.44Z" fill="currentColor" stroke-width="0"/><path d="M280.71,94.82c1.18-8.4,2.41-16.34,3.37-24.31.46-3.81.4-7.68.54-11.52.04-1.14-.13-2.4-1.23-2.94-1.3-.64-2.45.19-3.33,1.08-2.53,2.54-4.84,5-4.89,9.12-.07,6.45-.92,12.88-1.22,19.33-.11,2.46-.83,3.88-3.42,4.35-2.43.44-4.78,1.28-6.98,1.89-.96-.45-.78-1.13-.8-1.7-.44-13.16-.81-26.33-1.36-39.48-.1-2.38.54-3.57,2.85-4.31,4.11-1.32,8.12-2.94,12.42-4.53-.2,3.79-.37,7.22-.59,11.29,2.26-1.83,4.03-3.31,5.85-4.71,1.58-1.21,3.14-2.47,4.87-3.44,8.03-4.53,13.16-1.71,13.16,7.46,0,12.64-3.18,24.8-6.16,36.98-.33,1.34-1.12,1.8-2.22,2.13-3.44,1.05-6.88,2.1-10.84,3.31Z" fill="currentColor" stroke-width="0"/><path d="M258.35,93.93c-4.32,1.18-8.35,2.28-12.61,3.45-.36-2.52-.67-4.71-1.02-7.15-2.66,1.66-5.1,3.56-8.09,4.44-7.16,2.12-12.72-1.13-14.23-8.4-1.71-8.23,1.43-15.71,8.62-20.2,3.37-2.1,6.93-3.91,10.3-6.01,2.97-1.85,5.11-4.36,5.22-8.1.04-1.48.32-3.29-1.23-4.02-1.6-.75-2.75.71-3.75,1.78-2.16,2.31-3.32,5.19-4.54,8.41-3.53-1.05-7.05-2.1-10.57-3.15,2.92-10.86,13.76-16.56,23.37-12.41,4.65,2.01,7.31,5.53,7.67,10.55.2,2.71.3,5.51-.15,8.17-1.83,10.8-1.52,21.5.99,32.63ZM245.5,65.11c-5.31,2.21-8.66,5.42-10.46,10.16-1.44,3.77-.08,8.69,2.49,9.52,2.49.81,5.79-2.43,6.49-6.75.65-4.01.94-8.07,1.48-12.93Z" fill="currentColor" stroke-width="0"/><path d="M86.01,58.1c-1.55-1.81-2.82-3.3-4.35-5.08,5.29-4.86,10.72-9.88,16.17-14.87,1.92-1.76,3.86-3.51,5.81-5.24,1.08-.96,2.17-2.49,3.77-1.06,1.62,1.44.31,2.66-.71,3.76-6.72,7.31-13.46,14.62-20.71,22.49Z" fill="currentColor" stroke-width="0"/><path d="M66.92,63.61c2.9-1.63,5.58-3.14,8.04-4.53,1.83,1.76,3.5,3.37,5.17,4.97-3.32,5.44-8.07,5.4-13.21-.44Z" fill="currentColor" stroke-width="0"/><path d="M81.66,62.06c-1.56-1.64-2.91-3.06-4.16-4.39.44-1.43,1.46-1.92,2.07-2.51,1.65,1.51,3.18,2.92,4.68,4.29-.52,1.26-1.37,1.93-2.59,2.6Z" fill="currentColor" stroke-width="0"/><path d="M34.08,68.74c3.35,0,6.29,3.04,6.31,6.52.02,3.34-2.72,6.26-5.97,6.34-3.72.09-6.74-2.78-6.74-6.41,0-3.42,3-6.45,6.4-6.44ZM38.17,75.27c-.16-2.56-1.53-4.18-3.88-4.24-2.5-.07-4.29,1.48-4.29,4.1,0,2.6,1.62,4.12,4.25,4.07,2.48-.05,3.73-1.6,3.92-3.93Z" fill="currentColor" opacity="0" stroke-width="0"/><path d="M45.66,58.14c-.03,3.56-2.89,6.36-6.43,6.31-3.48-.05-6.3-2.96-6.3-6.5,0-3.43,3.05-6.43,6.48-6.37,3.5.06,6.29,2.98,6.25,6.57ZM43.43,58.03c-.18-2.62-1.64-4.26-4.23-4.18-2.36.07-3.96,1.65-3.96,4.11,0,2.63,1.58,4.25,4.23,4.17,2.4-.07,3.86-1.52,3.96-4.09Z" fill="currentColor" opacity="0" stroke-width="0"/><path d="M62.13,50.54c.01,3.27-2.82,6.23-6.05,6.33-3.38.1-6.54-2.84-6.66-6.2-.11-3.34,2.92-6.5,6.3-6.57,3.32-.07,6.4,3.02,6.41,6.44ZM59.89,50.77c-.09-2.64-1.48-4.26-3.84-4.38-2.56-.13-4.32,1.44-4.33,4.07,0,2.42,1.49,3.96,3.99,4,2.47.03,3.87-1.38,4.17-3.69Z" fill="#fdfdfd" opacity="0" stroke-width="0"/><path d="M339.56,72.37c2.11-7.95,4.21-15.35,7.64-23.34.85,8.04-.46,15.01-.6,22.5-2.12.25-4.24.51-7.03.84Z" fill="currentColor" opacity="0" stroke-width="0"/><path d="M245.5,65.11c-.54,4.86-.83,8.92-1.48,12.93-.7,4.33-4,7.56-6.49,6.75-2.57-.83-3.92-5.75-2.49-9.52,1.8-4.73,5.15-7.95,10.46-10.16Z" fill="#fdfdfd" opacity="0" stroke-width="0"/><path d="M38.17,75.27c-.18,2.33-1.43,3.87-3.92,3.93-2.63.06-4.25-1.47-4.25-4.07,0-2.62,1.78-4.17,4.29-4.1,2.35.06,3.72,1.68,3.88,4.24Z" fill="currentColor" stroke-width="0"/><path d="M43.43,58.03c-.1,2.57-1.56,4.02-3.96,4.09-2.64.08-4.22-1.54-4.23-4.17,0-2.46,1.6-4.04,3.96-4.11,2.59-.07,4.05,1.56,4.23,4.18Z" fill="currentColor" stroke-width="0"/><path d="M59.89,50.77c-.31,2.32-1.7,3.73-4.17,3.69-2.5-.04-4-1.57-3.99-4,.01-2.64,1.77-4.21,4.33-4.07,2.36.12,3.75,1.74,3.84,4.38Z" fill="currentColor" stroke-width="0"/></svg>